<?xml version="1.0" encoding="UTF-8" standalone="no"?>
<!DOCTYPE svg PUBLIC "-//W3C//DTD SVG 1.0//EN" "http://www.w3.org/TR/2001/REC-SVG-20010904/DTD/svg10.dtd">
<svg xmlns="http://www.w3.org/2000/svg" width="100%" height="100%">
<defs>
<font id="agencyb-1" horiz-adv-x="700"><font-face font-family="Agency FB" units-per-em="2048" panose-1="2 11 8 4 2 2 2 2 2 4" ascent="2042" descent="-410" alphabetic="0"/>
<missing-glyph horiz-adv-x="1024" d="M128 0V1633H896V0H128ZM256 128H768V1505H256V128Z"/>
<glyph unicode=" " glyph-name="space" horiz-adv-x="422"/>
<glyph unicode="!" glyph-name="exclam" horiz-adv-x="438" d="M344 1565L311 365H127L94 1565H344ZM334 0H102V240H334V0Z"/>
<glyph unicode="&quot;" glyph-name="quotedbl" horiz-adv-x="707" d="M631 1565L588 1075H446L403 1565H631ZM303 1565L258 1075H119L74 1565H303Z"/>
<glyph unicode="#" glyph-name="numbersign" horiz-adv-x="1110" d="M1065 979H877L813 582H993V391H782L719 0H512L575 391H410L348 0H139L203 391H47V582H233L297 979H119V1169H328L391 1565H598L535 1169H700L764 1565H973L907 1169H1065V979ZM670 979H504L440 582H606L670 979Z"/>
<glyph unicode="$" glyph-name="dollar" horiz-adv-x="936" d="M840 158Q840 70 786 37Q747 13 662 13Q648 13 618 14Q588 14 573 14V-125H354V14Q339 14 309 14Q280 13 265 13Q181 13 142 37Q90 69 90 158V516H324V203H606V508L141 948Q90 997 90 1075V1407Q90 1495 142 1528Q181 1552 265 1552Q280 1552 309 1551T354 1550V1690H573V1550Q588 1550 618 1551T664 1552Q748 1552 787 1528Q840 1496 840 1409V1071H606V1358H324V1083L786 647Q840 597 840 520V158Z"/>
<glyph unicode="%" glyph-name="percent" horiz-adv-x="1343" d="M1157 1536L317 0H182V28L1023 1565H1157V1536ZM1294 121Q1294 0 1173 0H903Q782 0 782 121V675Q782 796 903 796H1173Q1294 796 1294 675V121ZM1126 146V650H948V146H1126ZM555 890Q555 769 434 769H164Q43 769 43 890V1444Q43 1565 164 1565H434Q555 1565 555 1444V890ZM387 915V1419H209V915H387Z"/>
<glyph unicode="&amp;" glyph-name="ampersand" horiz-adv-x="999" d="M954 715H844V0H231Q90 0 90 141V618Q90 694 140 738Q199 778 258 817Q201 855 144 894Q94 937 94 1010V1423Q94 1565 236 1565H711Q852 1565 852 1423V1098H623V1368H326V989L432 915H954V715ZM616 197V715H426L319 639V197H616Z"/>
<glyph unicode="'" glyph-name="quotesingle" horiz-adv-x="377" d="M303 1565L258 1075H119L74 1565H303Z"/>
<glyph unicode="(" glyph-name="parenleft" horiz-adv-x="623" d="M571 -201H340Q84 205 84 682Q84 1159 340 1565H571V1554Q334 1142 334 682Q334 222 571 -190V-201Z"/>
<glyph unicode=")" glyph-name="parenright" horiz-adv-x="623" d="M541 682Q541 205 285 -201H53V-190Q291 222 291 682Q291 1142 53 1554V1565H285Q541 1159 541 682Z"/>
<glyph unicode="*" glyph-name="asterisk" horiz-adv-x="938" d="M862 1085L754 911L551 1061L569 801H367L389 1061L184 911L78 1085L319 1190L78 1296L184 1470L389 1323L367 1581H569L551 1323L754 1470L862 1296L621 1190L862 1085Z"/>
<glyph unicode="+" glyph-name="plus" horiz-adv-x="971" d="M897 588H592V289H379V588H74V782H379V1081H592V782H897V588Z"/>
<glyph unicode="," glyph-name="comma" horiz-adv-x="377" d="M324 240L207 -162H55L84 240H324Z"/>
<glyph unicode="-" glyph-name="hyphen" horiz-adv-x="631" d="M553 498H76V707H553V498Z"/>
<glyph unicode="." glyph-name="period" horiz-adv-x="377" d="M301 0H76V242H301V0Z"/>
<glyph unicode="/" glyph-name="slash" horiz-adv-x="909" d="M870 1550L252 0H39V14L657 1565H870V1550Z"/>
<glyph unicode="0" glyph-name="zero" horiz-adv-x="956" d="M862 143Q862 0 721 0H233Q94 0 94 143V1421Q94 1565 236 1565H721Q862 1565 862 1421V143ZM633 201V1364H324V201H633Z"/>
<glyph unicode="1" glyph-name="one" horiz-adv-x="481" d="M377 0H147V1104H57V1135L178 1565H377V0Z"/>
<glyph unicode="2" glyph-name="two" horiz-adv-x="903" d="M829 1120Q829 1046 778 956L348 205H827V0H68V145L598 1077V1366H313V1075H84V1423Q84 1565 227 1565H686Q829 1565 829 1423V1120Z"/>
<glyph unicode="3" glyph-name="three" horiz-adv-x="942" d="M854 143Q854 0 713 0H233Q94 0 94 143V504H324V201H625V594L338 791V840L625 1034V1364H324V1079H94V1421Q94 1565 236 1565H713Q854 1565 854 1421V1053Q854 960 776 909L631 815L778 723Q854 676 854 582V143Z"/>
<glyph unicode="4" glyph-name="four" horiz-adv-x="932" d="M891 295H772V0H549V295H35V434L424 1565H662Q662 1558 662 1556L297 494H549V965H772V494H891V295Z"/>
<glyph unicode="5" glyph-name="five" horiz-adv-x="930" d="M842 143Q842 0 700 0H231Q92 0 92 143V504H322V201H612V803H92L117 1565H831V1360H334L319 1004H700Q842 1004 842 862V143Z"/>
<glyph unicode="6" glyph-name="six" horiz-adv-x="944" d="M852 143Q852 0 711 0H236Q94 0 94 143V1421Q94 1565 233 1565H707Q848 1565 848 1421V1090H618V1364H324V893H711Q852 893 852 752V143ZM623 201V694H324V201H623Z"/>
<glyph unicode="7" glyph-name="seven" horiz-adv-x="883" d="M834 1415L473 0H233L584 1364H285V1135H59V1565H834V1415Z"/>
<glyph unicode="8" glyph-name="eight" horiz-adv-x="961" d="M866 143Q866 0 725 0H231Q92 0 92 143V598Q92 685 150 731Q219 771 289 811Q222 850 155 889Q94 937 94 1018V1421Q94 1565 236 1565H723Q862 1565 862 1421V1018Q862 936 802 889Q735 850 668 811Q737 771 807 731Q866 685 866 598V143ZM631 993V1368H328V993L479 903L631 993ZM633 197V631L479 719L324 631V197H633Z"/>
<glyph unicode="9" glyph-name="nine" horiz-adv-x="944" d="M850 143Q850 0 709 0H238Q96 0 96 143V475H326V201H618V672H229Q90 672 90 813V1421Q90 1565 229 1565H707Q850 1565 850 1421V143ZM618 870V1364H319V870H618Z"/>
<glyph unicode=":" glyph-name="colon" horiz-adv-x="377" d="M301 635H76V879H301V635ZM301 0H76V242H301V0Z"/>
<glyph unicode=";" glyph-name="semicolon" horiz-adv-x="377" d="M301 635H76V879H301V635ZM315 240L199 -162H47L76 240H315Z"/>
<glyph unicode="&lt;" glyph-name="less" horiz-adv-x="745" d="M659 203H647L66 616V735L659 1149V907L315 676L659 444V203Z"/>
<glyph unicode="=" glyph-name="equal" horiz-adv-x="956" d="M877 768H80V961H877V768ZM877 373H80V563H877V373Z"/>
<glyph unicode="&gt;" glyph-name="greater" horiz-adv-x="745" d="M682 616L100 203H86V444L432 676L86 907V1149H100L682 735V616Z"/>
<glyph unicode="?" glyph-name="question" horiz-adv-x="868" d="M797 1098Q797 1022 756 967L528 659V365H301V631Q301 710 342 766L567 1071V1370H303V1085H74V1421Q74 1565 217 1565H653Q797 1565 797 1421V1098ZM532 0H297V240H532V0Z"/>
<glyph unicode="@" glyph-name="at" horiz-adv-x="1194" d="M1102 0H182Q92 0 92 90V1475Q92 1565 182 1565H1012Q1102 1565 1102 1475V432Q1102 342 1012 342H455Q365 342 365 430V780Q365 870 455 870H659V1094H530V954H375V1141Q375 1231 463 1231H731Q821 1231 821 1141V449H995V1462H199V102H1102V0ZM659 473V741H526V473H659Z"/>
<glyph unicode="A" glyph-name="A" horiz-adv-x="924" d="M887 0H655L608 297H315L268 0H37V4L340 1567H586L887 0ZM575 498L461 1204L346 498H575Z"/>
<glyph unicode="B" glyph-name="B" horiz-adv-x="952" d="M862 143Q862 0 719 0H94V1565H715Q854 1565 854 1421V1018Q854 938 804 894Q797 888 682 817Q801 744 808 737Q862 690 862 608V143ZM621 989V1368H328V909H508L621 989ZM627 197V643L512 719H328V197H627Z"/>
<glyph unicode="C" glyph-name="C" horiz-adv-x="954" d="M864 143Q864 0 721 0H233Q94 0 94 143V1421Q94 1565 233 1565H721Q864 1565 864 1421V1055H631V1364H328V201H631V530H864V143Z"/>
<glyph unicode="D" glyph-name="D" horiz-adv-x="961" d="M874 295Q874 157 792 79T571 0H94V1565H571Q710 1565 792 1486T874 1268V295ZM639 334V1233Q639 1364 502 1364H328V201H496Q639 201 639 334Z"/>
<glyph unicode="E" glyph-name="E" horiz-adv-x="809" d="M743 0H94V1565H737V1358H328V901H680V698H328V207H743V0Z"/>
<glyph unicode="F" glyph-name="F" horiz-adv-x="772" d="M733 1358H328V895H674V692H328V0H94V1565H733V1358Z"/>
<glyph unicode="G" glyph-name="G" horiz-adv-x="961" d="M868 143Q868 0 725 0H233Q94 0 94 143V1421Q94 1565 236 1565H725Q868 1565 868 1421V1087H633V1364H328V201H633V639H459V838H868V143Z"/>
<glyph unicode="H" glyph-name="H" horiz-adv-x="973" d="M881 0H645V702H328V0H94V1565H328V920H645V1565H881V0Z"/>
<glyph unicode="I" glyph-name="I" horiz-adv-x="430" d="M332 0H98V1565H332V0Z"/>
<glyph unicode="J" glyph-name="J" horiz-adv-x="889" d="M797 143Q797 0 653 0H209Q68 0 68 143V528H301V201H563V1565H797V143Z"/>
<glyph unicode="K" glyph-name="K" horiz-adv-x="883" d="M883 0H625L328 698V0H94V1565H328V903L588 1565H844V1554L526 811L883 0Z"/>
<glyph unicode="L" glyph-name="L" horiz-adv-x="754" d="M709 0H94V1565H328V209H709V0Z"/>
<glyph unicode="M" glyph-name="M" horiz-adv-x="1133" d="M1040 0H815V772Q815 833 829 942L627 143H508L305 942Q319 831 319 772V0H94V1565H315L561 700Q565 686 567 629Q567 654 573 700L819 1565H1040V0Z"/>
<glyph unicode="N" glyph-name="N" horiz-adv-x="981" d="M887 0H682L307 985Q322 913 322 872V0H94V1565H299L674 600Q659 672 659 713V1565H887V0Z"/>
<glyph unicode="O" glyph-name="O" horiz-adv-x="977" d="M883 143Q883 0 741 0H233Q94 0 94 143V1421Q94 1565 233 1565H741Q883 1565 883 1421V143ZM649 201V1364H328V201H649Z"/>
<glyph unicode="P" glyph-name="P" horiz-adv-x="922" d="M850 713Q850 567 707 567H328V0H94V1565H707Q850 1565 850 1421V713ZM614 768V1364H328V768H614Z"/>
<glyph unicode="Q" glyph-name="Q" horiz-adv-x="1008" d="M989 -2H973L868 78Q840 0 741 0H233Q94 0 94 143V1421Q94 1565 236 1565H741Q883 1565 883 1421V289L989 213V-2ZM649 201V256L512 360V573H526L649 481V1364H328V201H649Z"/>
<glyph unicode="R" glyph-name="R" horiz-adv-x="944" d="M895 0H651L393 727Q393 727 393 868H623V1364H328V0H94V1565H715Q856 1565 856 1421V852Q856 753 789 724Q753 709 637 709L895 0Z"/>
<glyph unicode="S" glyph-name="S" horiz-adv-x="936" d="M844 143Q844 0 702 0H231Q90 0 90 143V516H324V197H610V504L141 948Q90 997 90 1073V1421Q90 1565 231 1565H702Q844 1565 844 1423V1073H610V1368H324V1085L793 643Q844 595 844 516V143Z"/>
<glyph unicode="T" glyph-name="T" horiz-adv-x="799" d="M774 1358H516V0H283V1358H25V1565H774V1358Z"/>
<glyph unicode="U" glyph-name="U" horiz-adv-x="971" d="M877 143Q877 0 733 0H236Q94 0 94 143V1565H328V201H643V1565H877V143Z"/>
<glyph unicode="V" glyph-name="V" horiz-adv-x="911" d="M873 1565L573 -2H340L41 1565H276L451 492Q453 446 457 358Q456 404 463 492L639 1565H873Z"/>
<glyph unicode="W" glyph-name="W" horiz-adv-x="1286" d="M1249 1565L1020 -2H791L651 885Q649 933 643 1028Q643 980 635 885L496 -2H266L37 1565H274L395 637Q398 589 403 494Q404 542 412 637L547 1565H739L874 637Q877 589 883 494Q884 542 891 637L1012 1565H1249Z"/>
<glyph unicode="X" glyph-name="X" horiz-adv-x="901" d="M874 0H621L449 551L276 0H27V8L319 801Q44 1561 45 1565H295L451 1055L608 1565H856V1556L582 807L874 0Z"/>
<glyph unicode="Y" glyph-name="Y" horiz-adv-x="907" d="M881 1556L674 902Q636 805 571 575V0H336V575Q320 653 290 740Q237 889 233 902L27 1556Q26 1557 27 1565H268L455 885L641 1565H881Q881 1558 881 1556Z"/>
<glyph unicode="Z" glyph-name="Z" horiz-adv-x="799" d="M758 0H39V125L477 1354H74V1565H756V1430L319 211H758V0Z"/>
<glyph unicode="[" glyph-name="bracketleft" horiz-adv-x="602" d="M530 -248H231Q94 -248 94 -111V1430Q94 1565 231 1565H530V1356H324V-39H530V-248Z"/>
<glyph unicode="\" glyph-name="backslash" horiz-adv-x="909" d="M870 0H657L39 1565H252L870 0Z"/>
<glyph unicode="]" glyph-name="bracketright" horiz-adv-x="602" d="M510 -111Q510 -248 373 -248H72V-39H281V1356H72V1565H373Q510 1565 510 1430V-111Z"/>
<glyph unicode="^" glyph-name="asciicircum" horiz-adv-x="854" d="M776 1012H592L426 1323L260 1012H78V1024L328 1565H530L776 1012Z"/>
<glyph unicode="_" glyph-name="underscore" horiz-adv-x="809" d="M811 -410H0V-236H811V-410Z"/>
<glyph unicode="`" glyph-name="grave" horiz-adv-x="836" d="M690 1077H522L231 1341V1350H516L690 1085V1077Z"/>
<glyph unicode="a" glyph-name="a" horiz-adv-x="815" d="M733 0H514V35Q436 23 358 11Q256 -4 203 -4Q78 -4 78 119V483Q78 608 207 608H516V840H297V696H90V885Q90 1010 219 1010H606Q733 1010 733 885V0ZM516 182V453H297V174L516 182Z"/>
<glyph unicode="b" glyph-name="b" horiz-adv-x="838" d="M756 203Q756 108 699 54T547 0H82V1565H311V973Q391 985 471 998Q572 1014 631 1014Q756 1014 756 891V203ZM526 266V819L311 815V190H453Q526 190 526 266Z"/>
<glyph unicode="c" glyph-name="c" horiz-adv-x="817" d="M735 125Q735 0 608 0H211Q82 0 82 125V885Q82 1010 211 1010H608Q735 1010 735 885V645H512V819H307V190H512V383H735V125Z"/>
<glyph unicode="d" glyph-name="d" horiz-adv-x="836" d="M752 0H524V35Q292 -6 264 -6Q178 -6 129 44T80 182V807Q80 930 168 978Q232 1014 362 1014Q391 1014 446 1012T524 1010V1565H752V0ZM524 197V819H383Q307 819 307 743V260Q307 186 379 186Q396 186 524 197Z"/>
<glyph unicode="e" glyph-name="e" horiz-adv-x="819" d="M735 125Q735 0 606 0H211Q82 0 82 125V885Q82 1010 211 1010H606Q735 1010 735 885V514L672 451H301V168H516V336H735V125ZM516 600V842H301V600H516Z"/>
<glyph unicode="f" glyph-name="f" horiz-adv-x="528" d="M526 1366H358V1010H504V815H358V0H131V815H27V1010H131V1440Q131 1565 258 1565H526V1366Z"/>
<glyph unicode="g" glyph-name="g" horiz-adv-x="836" d="M752 -244Q752 -369 623 -369H225Q96 -369 96 -244V-82H317V-203H524V6H289Q193 6 137 60T80 209V827Q80 914 129 964T264 1014Q307 1014 524 973V1010H752V-244ZM524 190V811Q409 823 381 823Q307 823 307 750V266Q307 190 383 190H524Z"/>
<glyph unicode="h" glyph-name="h" horiz-adv-x="838" d="M756 0H526V819L311 815V0H82V1565H311V973Q391 985 471 998Q572 1014 631 1014Q756 1014 756 891V0Z"/>
<glyph unicode="i" glyph-name="i" horiz-adv-x="401" d="M315 1155H86V1391H315V1155ZM313 0H88V1010H313V0Z"/>
<glyph unicode="j" glyph-name="j" horiz-adv-x="401" d="M315 1155H86V1391H315V1155ZM313 -244Q313 -369 186 -369H-57V-178H88V1010H313V-244Z"/>
<glyph unicode="k" glyph-name="k" horiz-adv-x="772" d="M756 0H512L311 463V0H82V1565H311V625L492 1010H731V1006L498 547L756 0Z"/>
<glyph unicode="l" glyph-name="l" horiz-adv-x="401" d="M313 0H88V1565H313V0Z"/>
<glyph unicode="m" glyph-name="m" horiz-adv-x="1278" d="M1196 0H969V819L754 815V0H526V819L311 815V0H82V1010H311V973Q391 986 470 999Q567 1014 631 1014Q710 1014 733 969Q817 982 901 996Q1012 1014 1071 1014Q1196 1014 1196 891V0Z"/>
<glyph unicode="n" glyph-name="n" horiz-adv-x="838" d="M756 0H526V819L311 815V0H82V1010H311V973Q391 986 470 998Q568 1014 631 1014Q756 1014 756 891V0Z"/>
<glyph unicode="o" glyph-name="o" horiz-adv-x="831" d="M748 125Q748 0 621 0H211Q82 0 82 125V885Q82 1010 211 1010H621Q748 1010 748 885V125ZM524 190V819H307V190H524Z"/>
<glyph unicode="p" glyph-name="p" horiz-adv-x="836" d="M756 203Q756 80 668 31Q604 -4 474 -4Q444 -4 390 -2T311 0V-369H82V1010H311V973Q391 985 471 998Q572 1014 631 1014Q756 1014 756 891V203ZM526 266V819L311 815V190H453Q526 190 526 266Z"/>
<glyph unicode="q" glyph-name="q" horiz-adv-x="836" d="M752 -369H524V0H289Q193 0 137 54T80 203V827Q80 914 129 964T264 1014Q307 1014 524 973V1010H752V-369ZM524 190V811Q399 823 379 823Q307 823 307 750V266Q307 190 381 190H524Z"/>
<glyph unicode="r" glyph-name="r" horiz-adv-x="766" d="M719 588H492V819L311 815V0H82V1010H311V973Q382 986 452 999Q537 1014 594 1014Q719 1014 719 891V588Z"/>
<glyph unicode="s" glyph-name="s" horiz-adv-x="795" d="M717 125Q717 0 590 0H205Q78 0 78 125V342H297V172H498V332L147 539Q78 580 78 649V885Q78 1010 207 1010H588Q715 1010 715 885V682H498V838H297V692L647 487Q717 447 717 375V125Z"/>
<glyph unicode="t" glyph-name="t" horiz-adv-x="563" d="M518 0H264Q137 0 137 125V815H29V1010H137V1284H365V1010H512V815H365V195H518V0Z"/>
<glyph unicode="u" glyph-name="u" horiz-adv-x="838" d="M754 0H526V35Q447 22 367 9Q270 -6 207 -6Q82 -6 82 119V1010H309V190L526 195V1010H754V0Z"/>
<glyph unicode="v" glyph-name="v" horiz-adv-x="797" d="M766 1010L508 -2H289L31 1010H266L399 346L532 1010H766Z"/>
<glyph unicode="w" glyph-name="w" horiz-adv-x="1112" d="M1081 1010L864 -2H664L555 557L446 -2H248L31 1010H250L360 365L469 1010H643L752 365L862 1010H1081Z"/>
<glyph unicode="x" glyph-name="x" horiz-adv-x="778" d="M758 0H510L389 317L264 0H20V4L264 520L43 1010H279L389 717L504 1010H735V1006L514 522L758 0Z"/>
<glyph unicode="y" glyph-name="y" horiz-adv-x="797" d="M766 1010L513 13L416 -369H182L287 8L31 1010H266L399 346L532 1010H766Z"/>
<glyph unicode="z" glyph-name="z" horiz-adv-x="711" d="M653 0H45V135L381 823H72V1010H653V874L315 186H653V0Z"/>
<glyph unicode="{" glyph-name="braceleft" horiz-adv-x="760" d="M688 -248H489Q250 -248 250 0V479L53 672V709L250 901V1317Q250 1565 489 1565H688V1358Q676 1358 645 1360T597 1362Q481 1362 481 1278V924Q481 867 470 841T418 780L309 690L418 598Q459 563 471 535Q481 511 481 457V43Q481 -44 600 -44Q616 -44 646 -43T688 -41V-248Z"/>
<glyph unicode="|" glyph-name="bar" horiz-adv-x="430" d="M328 -360H102V1565H328V-360Z"/>
<glyph unicode="}" glyph-name="braceright" horiz-adv-x="760" d="M707 672L510 479V0Q510 -248 270 -248H72V-41Q83 -41 113 -42T159 -44Q281 -44 281 43V457Q281 513 291 538T342 598L451 690L342 780Q301 814 290 843Q281 866 281 924V1278Q281 1361 162 1361Q145 1361 114 1360T72 1358V1565H270Q510 1565 510 1317V901L707 709V672Z"/>
<glyph unicode="~" glyph-name="asciitilde" horiz-adv-x="1036" d="M907 545Q907 422 791 422Q736 422 659 453L328 586V428H129V678Q129 799 246 799Q298 799 375 768L707 635V793H907V545Z"/>
</font>
</defs>
</svg>
